<svg width="16" height="15" viewBox="0 0 16 15" fill="none" xmlns="http://www.w3.org/2000/svg">
<path d="M13.3971 3.08933C13.2114 2.98799 12.9675 2.94084 12.6295 2.94084C10.0064 2.94084 1.0758 6.06402 0.696973 6.19709C0.613782 6.22618 0.54093 6.27685 0.487349 6.34338C-0.095461 7.06337 0.0196911 9.71244 0.959708 11.0343C2.25458 12.8554 4.16564 13.3714 5.08544 13.4556C5.10048 13.4569 5.1362 13.4587 5.15124 13.4587C6.30652 13.4587 13.7674 8.71705 14.3277 7.62738C14.9721 6.37467 14.9298 3.92609 13.3971 3.08933Z" fill="#EEEEEE"/>
<path d="M11.7699 3.98426C9.88983 5.30615 5.65975 7.94993 5.65975 7.94993C5.32417 8.89331 4.75593 11.6261 5.30819 13.4375C6.85451 13.1093 13.7881 8.67652 14.3276 7.62738C14.8141 6.68223 14.9081 5.05675 14.2665 3.95606C13.445 3.50133 12.5656 3.42466 11.7699 3.98426Z" fill="#CCD6DD"/>
<path d="M14.5985 2.45131C14.4918 2.35746 14.3442 2.31516 14.2009 2.33807L0.393925 4.46763C0.162211 4.50332 -0.00558229 4.69411 0.000527822 4.91399C0.012748 5.35903 0.00945798 5.68333 0.0052279 6.04773C0.00287786 6.25042 0.000527822 6.46545 0.000527822 6.71969C0.000527822 6.85056 0.062569 6.97525 0.170201 7.05897C1.12573 7.80232 4.26585 9.77193 4.9798 10.1068C5.04607 10.1377 5.11845 10.1531 5.18989 10.1531C5.29141 10.1531 5.39293 10.1222 5.4766 10.0619C6.67794 9.19515 13.2237 5.68641 14.2484 5.27002C14.4058 5.20613 14.5139 5.06601 14.5294 4.90562C14.5882 4.30107 14.7447 2.81659 14.7447 2.81659C14.7588 2.67956 14.7052 2.54472 14.5985 2.45131Z" fill="#A0041E"/>
<path d="M14.6299 2.48127C13.6805 1.47003 10.1051 0.025204 9.49883 0.000528755C9.46076 -0.00123376 9.4241 0.00141002 9.38696 0.00846009C4.63706 0.895888 1.52889 3.44801 0.358574 4.40903L0.16305 4.56854C0.0540081 4.65666 -0.00568292 4.78709 0.000427186 4.92192C0.0070073 5.05675 0.0789186 5.18145 0.195951 5.26032C0.355284 5.3674 4.10454 7.88648 5.01683 8.37029C5.08921 8.40818 5.16864 8.42713 5.24807 8.42713C5.36087 8.42713 5.47321 8.38879 5.56157 8.31521C7.40165 6.77345 13.5987 3.48547 14.4443 3.18452C14.5885 3.13296 14.6962 3.01884 14.7333 2.87872C14.7704 2.73816 14.7319 2.58967 14.6299 2.48127Z" fill="#DD2E44"/>
<path d="M3.85767 7.25241C3.633 7.25241 3.43466 7.10127 3.39518 6.88669L3.37356 6.76904C3.18649 5.75206 2.97452 4.59894 2.58911 3.49736C2.5078 3.26647 2.6427 3.01752 2.88898 2.94129C3.13526 2.86506 3.40129 2.99152 3.48213 3.22285C3.88916 4.38567 4.10724 5.57229 4.29947 6.61922L4.3211 6.73643C4.36528 6.97613 4.19372 7.20438 3.93804 7.24536C3.91125 7.25021 3.88399 7.25241 3.85767 7.25241ZM6.69746 7.14225C6.44882 7.14225 6.24108 6.95895 6.22839 6.72365C6.1922 6.04508 5.67096 3.21051 5.19907 2.00671C5.10977 1.77803 5.23432 1.52511 5.47779 1.44095C5.72313 1.35679 5.99198 1.47399 6.08128 1.70224C6.58137 2.97786 7.12329 5.85958 7.167 6.67915C7.18016 6.92194 6.9804 7.12903 6.72096 7.14093C6.71344 7.14181 6.70545 7.14225 6.69746 7.14225ZM9.34126 5.47138C9.11236 5.47138 8.91214 5.31496 8.87689 5.09597L8.82378 4.74919C8.68606 3.84105 8.42944 2.1508 8.03416 1.03909C7.95191 0.808202 8.08492 0.558805 8.33121 0.481695C8.57843 0.404585 8.84352 0.529724 8.92577 0.760173C9.34784 1.94767 9.61245 3.68904 9.75439 4.62493L9.80703 4.9651C9.84557 5.20568 9.66838 5.42996 9.41176 5.4661C9.38826 5.47006 9.36429 5.47138 9.34126 5.47138ZM12.0043 3.96575C11.7656 3.96575 11.5616 3.79611 11.5371 3.56875C11.4497 2.74785 11.3148 2.14992 11.0723 1.50484C10.9858 1.27527 11.1146 1.02367 11.359 0.943034C11.6048 0.861958 11.8723 0.98225 11.9587 1.21182C12.2243 1.91859 12.3785 2.59716 12.4725 3.48106C12.4983 3.72297 12.3094 3.93887 12.0513 3.96311C12.0353 3.96531 12.0198 3.96575 12.0043 3.96575Z" fill="#EA596E"/>
<path d="M14.6539 9.71245C13.8483 9.16827 12.748 8.83119 11.5349 8.83119C10.3218 8.83119 9.22152 9.16827 8.41593 9.71245H7.06982V11.9156C7.06982 13.616 9.073 15 11.5349 15C13.9968 15 16 13.616 16 11.9156V9.71245H14.6539Z" fill="#292F33"/>
<path d="M11.5349 12.7969C14.0009 12.7969 16 11.4159 16 9.71244C16 8.00897 14.0009 6.62804 11.5349 6.62804C9.06891 6.62804 7.06982 8.00897 7.06982 9.71244C7.06982 11.4159 9.06891 12.7969 11.5349 12.7969Z" fill="#292F33"/>
<path d="M14.8639 9.71246C14.8639 10.9295 13.3736 11.9156 11.5349 11.9156C9.69621 11.9156 8.20581 10.9295 8.20581 9.71246C8.20581 8.49544 9.69621 7.50931 11.5349 7.50931C13.3736 7.50931 14.8639 8.49544 14.8639 9.71246Z" fill="#E1E8ED"/>
<path d="M11.5349 12.2826C9.48331 12.2826 7.81384 11.13 7.81384 9.71245C7.81384 8.29494 9.48331 7.14226 11.5349 7.14226C13.5865 7.14226 15.2555 8.29539 15.2555 9.71245C15.2555 11.1295 13.5865 12.2826 11.5349 12.2826ZM11.5349 7.87635C9.91525 7.87635 8.59735 8.69988 8.59735 9.71245C8.59735 10.725 9.91525 11.5486 11.5349 11.5486C13.1545 11.5486 14.4725 10.725 14.4725 9.71245C14.4725 8.69988 13.1545 7.87635 11.5349 7.87635Z" fill="#E1E8ED"/>
<path d="M9.51819 9.51062C9.51819 9.32468 10.367 9.36301 11.535 9.36301C12.703 9.36301 13.5133 9.12243 13.5133 9.30837C13.5133 10.0905 12.703 10.8735 11.535 10.8735C10.367 10.8735 9.51819 10.2927 9.51819 9.51062Z" fill="#77B255"/>
<path d="M11.5349 11.0938C10.2301 11.0938 9.28308 10.428 9.28308 9.51064C9.28308 9.43485 9.31551 9.36259 9.37473 9.30751C9.5524 9.14139 9.93733 9.13434 11.0212 9.14095L11.5349 9.14272C12.0491 9.14272 12.5003 9.09425 12.8302 9.05856C13.297 9.00876 13.5085 8.98585 13.6509 9.10438L13.7298 9.17003L13.7482 9.30795C13.7482 10.1667 12.9017 11.0938 11.5349 11.0938ZM9.75967 9.61419C9.83346 10.2223 10.5573 10.6528 11.5349 10.6528C12.4965 10.6528 13.1677 10.061 13.2659 9.45997C13.1625 9.4657 13.0178 9.48156 12.8843 9.49566C12.5431 9.53267 12.0763 9.5829 11.5354 9.5829L11.0188 9.58114C10.5253 9.5785 9.97587 9.5763 9.75967 9.61419Z" fill="#77B255"/>
<path d="M13.65 9.27181C13.65 9.27181 12.71 8.83118 11.3 9.27181C10.1921 9.61815 9.41992 10.3998 9.41992 9.61771C9.41992 8.83559 10.367 8.20197 11.535 8.20197C12.7029 8.20197 13.65 8.83118 13.65 9.27181Z" fill="#F4900C"/>
<path d="M9.62956 10.1751C9.55107 10.1751 9.47822 10.1579 9.4096 10.1191C9.18494 9.99224 9.18494 9.71023 9.18494 9.6177C9.18494 8.71573 10.2392 7.98164 11.535 7.98164C12.8369 7.98164 13.885 8.68753 13.885 9.27181C13.885 9.34804 13.8427 9.41898 13.7736 9.45952C13.705 9.49873 13.6185 9.50314 13.5461 9.46921C13.5306 9.46172 12.6592 9.07881 11.3747 9.48067C11.0189 9.5917 10.7002 9.74945 10.4196 9.88913C10.0991 10.0482 9.84389 10.1751 9.62956 10.1751ZM11.535 8.42227C10.4981 8.42227 9.65494 8.95852 9.65494 9.6177C9.65494 9.67366 9.65964 9.70935 9.66482 9.73094C9.77386 9.71111 10.0169 9.59082 10.1997 9.50005C10.4822 9.36037 10.8337 9.18544 11.2262 9.06295C12.0233 8.81399 12.6818 8.82986 13.1264 8.90168C12.8087 8.66242 12.2475 8.42227 11.535 8.42227Z" fill="#F4900C"/>
</svg>
